<?xml version="1.0" encoding="UTF-8" standalone="no"?>
<svg
   version="1.1"
   x="0px"
   y="0px"
   viewBox="0 0 84.863 112.5"
   enable-background="new 0 0 84.863 90"
   xml:space="preserve"
   id="svg2"
   sodipodi:docname="paper-blue.svg"
   inkscape:version="1.3.2 (091e20e, 2023-11-25, custom)"
   xmlns:inkscape="http://www.inkscape.org/namespaces/inkscape"
   xmlns:sodipodi="http://sodipodi.sourceforge.net/DTD/sodipodi-0.dtd"
   xmlns="http://www.w3.org/2000/svg"
   xmlns:svg="http://www.w3.org/2000/svg"><defs
     id="defs2" /><sodipodi:namedview
     id="namedview2"
     pagecolor="#ffffff"
     bordercolor="#000000"
     borderopacity="0.25"
     inkscape:showpageshadow="2"
     inkscape:pageopacity="0.0"
     inkscape:pagecheckerboard="0"
     inkscape:deskcolor="#d1d1d1"
     showgrid="false"
     showguides="false"
     inkscape:zoom="11.466667"
     inkscape:cx="42.47093"
     inkscape:cy="42.209302"
     inkscape:window-width="2880"
     inkscape:window-height="1526"
     inkscape:window-x="-11"
     inkscape:window-y="-11"
     inkscape:window-maximized="1"
     inkscape:current-layer="svg2" /><path
     d="M72.158,61.501V22.412c0-3.862-3.129-6.996-6.992-6.996c-1.42,0.001-2.727,0.439-3.828,1.163v-4.447  c0-3.864-3.133-6.994-6.996-6.996c-1.527,0.001-2.938,0.495-4.088,1.327c-0.822-2.949-3.521-5.113-6.73-5.113  c-3.861,0.001-6.991,3.131-6.993,6.997v1.201c-1.102-0.725-2.408-1.162-3.825-1.164c-3.864,0.002-6.995,3.131-6.997,6.995v22.014  c-0.898-1.271-2.475-2.286-4.441-2.26c-1.185,0.002-2.474,0.322-3.908,0.975c-0.479,0.218-0.801,0.677-0.843,1.203  c0,0-0.004,0.05-0.028,0.224c-0.17,1.214-1.236,7.072-6.974,14.417C9.289,52.24,9.182,52.6,9.212,52.965  c0.008,0.063,0.745,9.061,3.72,18.184c1.494,4.564,3.536,9.17,6.437,12.739C22.241,87.438,26.125,90,30.989,90h0.029  c0.094-0.002,0.144-0.002,0.158-0.002L56.102,90c8.869-0.002,16.058-7.189,16.058-16.055V61.52c0-0.007,0.002-0.013,0.002-0.019  H72.158z M25.708,49.645v8.983l-1.17-0.347c-0.121-0.121-0.456-0.542-0.479-1.952C24.055,55.018,24.427,52.877,25.708,49.645z   M56.102,87.102c0,0-25.046,0.002-25.083,0.002c-3.824-0.014-6.827-1.912-9.401-5.047c-3.836-4.688-6.294-12.068-7.696-18.238  c-0.707-3.088-1.162-5.872-1.442-7.881c-0.168-1.205-0.27-2.121-0.326-2.662c5.289-6.932,6.744-12.676,7.125-14.828  c0.818-0.304,1.479-0.416,1.989-0.414c1.076,0.025,1.58,0.39,2.128,1.11c1.015,1.352,1.276,4.155,1.248,5.395  c0,0.149-0.002,0.274-0.004,0.371c-2.645,5.475-3.47,8.996-3.478,11.42c-0.072,3.228,1.769,4.526,2.212,4.623l3.373,1.009  c0.225,0.066,1.185,0.135,1.185,0.135s0.515,0.014,1.41,0.139c2.747,0.361,8.297,1.832,10.297,6.32  c0.244,0.53,0.77,0.844,1.316,0.844c0.204,0,0.409-0.043,0.605-0.136c0.727-0.334,1.045-1.194,0.71-1.921  c-1.874-4.04-5.534-6.047-8.567-7.058c-2.214-0.733-4.156-0.972-5.095-1.048V15.379c0.004-2.263,1.835-4.092,4.097-4.096  c1.746-0.004,3.237,1.096,3.826,2.638c0,0-0.001,31.867-0.001,31.881c-0.003,0.802,0.64,1.453,1.44,1.457  c0.8,0.005,1.454-0.641,1.458-1.442V8.347c0.004-2.265,1.835-4.094,4.095-4.098c2.263,0.004,4.093,1.833,4.097,4.098v39.627  c0,0.799,0.649,1.449,1.449,1.449c0.801,0,1.45-0.65,1.45-1.449h-0.002v-37.3c0.59-1.543,2.076-2.641,3.824-2.639  c2.264,0.004,4.094,1.835,4.098,4.097v37.354c0,0.799,0.648,1.45,1.449,1.45s1.451-0.651,1.451-1.45h-0.002V20.95  c0.592-1.54,2.08-2.637,3.828-2.635c2.262,0.004,4.09,1.834,4.094,4.097v39.093v12.44C69.246,81.21,63.369,87.088,56.102,87.102z"
     id="path1" /><path
     style="fill:#00ff00;stroke-width:0.0872093"
     d="M 43.2536,1.4103379 C 39.939245,1.4736588 36.960196,4.251264 36.651198,7.5491511 36.55907,8.2244739 36.553557,8.9072502 36.514126,9.586721 35.259117,8.7487675 33.748497,8.4063804 32.251942,8.4664562 c -3.010258,0.1290867 -5.703773,2.4974318 -6.321434,5.4326548 -0.283324,1.602735 -0.122663,3.248792 -0.186405,4.869777 -0.03038,6.215546 -0.01242,12.431203 -0.01736,18.646798 -1.011271,-1.153634 -2.35625,-2.144156 -3.944007,-2.21004 -1.601312,-0.07261 -3.243075,0.337404 -4.631461,1.130825 -0.785719,0.524649 -0.571545,1.599273 -0.855911,2.387696 -1.10461,4.853587 -3.699261,9.208841 -6.6311298,13.172583 -0.6662239,0.7641 -0.2663408,1.816973 -0.2375314,2.71659 0.9892682,7.523071 2.5753862,15.053332 5.6747722,22.013856 1.595493,3.509522 3.616927,6.908284 6.515189,9.50255 2.655685,2.543094 6.35558,3.972359 10.035874,3.811763 8.402478,0.0491 16.80624,0.08275 25.208267,-0.02259 5.872811,-0.229588 11.440479,-3.996512 13.811002,-9.379725 0.906211,-2.003247 1.444664,-4.190819 1.362138,-6.398655 0.08602,-14.219064 0.02631,-28.438693 0.04454,-42.657984 -0.01623,-3.413394 0.03243,-6.835999 -0.02427,-10.243647 -0.515167,-2.403498 -2.232806,-4.549708 -4.579938,-5.367527 -1.58636,-0.560596 -3.416617,-0.526249 -4.962583,0.152984 -0.411061,0.187692 -0.802951,0.413806 -1.203556,0.622219 -0.06567,-2.108053 0.173713,-4.255124 -0.266057,-6.333406 C 60.257417,7.3240939 57.30284,5.1026456 54.211994,5.197981 52.807272,5.1968228 51.466058,5.728936 50.294899,6.4686478 50.012002,6.3589003 50.060168,5.8286069 49.86739,5.5895253 48.771394,3.0326293 46.044699,1.2772272 43.2536,1.4103379 Z m 0.35548,2.8046648 c 1.859542,0.010059 3.528607,1.4158238 3.977028,3.2008666 0.171161,1.0939181 0.03089,2.2401367 0.08047,3.3544727 0.04406,12.159052 0.01183,24.318646 0.116522,36.47732 0.08356,0.624336 -0.188642,1.49306 0.504282,1.850323 0.873485,0.705395 2.30351,-0.124643 2.136586,-1.232573 0.121986,-6.927819 0.04386,-13.85811 0.06952,-20.786924 8e-4,-5.523255 0.0016,-11.046512 0.0024,-16.569767 0.748555,-1.6711007 2.619814,-2.7511291 4.441883,-2.4486738 2.030688,0.2290827 3.647774,2.1686058 3.513844,4.2059198 0.134172,12.251228 -0.0063,24.504031 0.117265,36.7552 -0.02424,0.654824 0.0152,1.473174 0.745879,1.74129 0.802615,0.371393 2.001152,-0.229715 1.890555,-1.196571 0.183471,-4.204024 0.06953,-8.415843 0.103677,-12.623037 9.6e-5,-5.381144 5.92e-4,-10.762287 8.51e-4,-16.14343 0.694135,-1.415134 2.181704,-2.627734 3.830907,-2.441861 1.546831,-0.159657 3.042853,0.841954 3.714912,2.205101 0.426006,0.711312 0.488662,1.521304 0.432129,2.329783 -0.0177,16.874689 0.04159,33.749645 -0.04701,50.624148 0.03661,1.537523 -0.07993,3.086513 -0.61251,4.542719 -1.311794,4.167867 -4.857763,7.479133 -9.060739,8.620435 -0.979518,0.305943 -1.984921,0.470569 -3.012298,0.39473 -8.582536,-0.01171 -17.165697,0.07203 -25.747834,-0.01568 C 28.84613,87.132254 26.909341,86.529931 25.272828,85.46206 21.676919,83.10379 19.394497,79.277024 17.641905,75.448892 14.745177,68.888153 13.23424,61.80662 12.276897,54.72689 c 0.0055,-0.523225 -0.285787,-1.125535 -0.07445,-1.59473 3.242542,-4.392354 5.964094,-9.317924 7.0427,-14.71646 0.995682,-0.351122 2.175022,-0.589423 3.180585,-0.170842 1.61705,0.96915 1.978911,3.008113 2.170183,4.731616 -0.0033,0.708845 0.230584,1.477404 -0.001,2.148228 -1.480703,3.153343 -2.84812,6.435676 -3.311877,9.911742 -0.09433,1.635448 -0.155166,3.439652 0.91603,4.80372 0.419086,0.562048 0.910902,1.110893 1.645528,1.196127 1.613414,0.527637 3.251489,1.011825 4.95721,1.101315 3.233015,0.372523 6.540985,1.429182 8.952535,3.696732 0.954959,0.85972 1.510681,2.031127 2.223155,3.072084 0.732814,0.8781 2.357063,0.261487 2.365894,-0.878395 -0.0942,-1.088972 -0.8655,-1.971779 -1.455813,-2.847242 -2.621937,-3.401639 -6.855164,-5.102821 -10.993018,-5.737397 -0.385631,-0.177074 -1.18305,0.059 -1.289871,-0.335748 0.01773,-14.30138 -0.04012,-28.603068 0.04133,-42.904239 0.01186,-1.09151 -0.07068,-2.285596 0.67764,-3.183524 1.244255,-1.891174 4.131862,-2.375869 5.881689,-0.911578 0.648714,0.572413 1.466391,1.281061 1.293659,2.237631 0.04714,10.292141 0.01259,20.585022 0.122571,30.876659 -0.0068,0.653822 -0.0187,1.47663 0.687014,1.79004 0.824775,0.504364 2.13951,-0.131975 1.999,-1.167617 0.137993,-7.039042 0.07535,-14.080938 0.115553,-21.121168 0.01304,-5.813955 0.02607,-11.62791 0.03911,-17.4418653 0.515808,-1.408861 1.64168,-2.6612546 3.156739,-2.9683525 0.324417,-0.072882 0.657688,-0.1065364 0.990132,-0.098621 z M 25.720612,54.135174 c -0.0031,1.51663 0.0099,3.033711 -0.01567,4.550044 -0.537441,-0.210832 -1.38563,-0.192616 -1.491926,-0.921149 -0.492204,-2.067983 0.154429,-4.199423 0.747751,-6.178234 0.21802,-0.680882 0.447633,-1.360086 0.753714,-2.007347 0.002,1.518896 0.0041,3.037791 0.0061,4.556686 z"
     id="path2" /><path
     style="fill:#0000ff;stroke-width:0.0872093"
     d="m 43.448117,1.4920967 c -2.63487,-0.08691 -5.087999,1.6911796 -6.197482,4.0177598 -0.596603,1.2732601 -0.531506,2.7270987 -0.783179,4.0659633 -1.787434,-1.0500506 -4.013364,-1.3321699 -5.994959,-0.7152185 -2.64564,0.9556793 -4.735848,3.6139827 -4.595243,6.4919497 -0.143046,7.357846 -0.138616,14.71762 -0.15051,22.076591 -1.164488,-1.198036 -2.664103,-2.282241 -4.418716,-2.184539 -1.519432,0.05922 -3.107178,0.431594 -4.349396,1.338847 -0.504821,0.68979 -0.408246,1.637417 -0.699178,2.42211 -1.10237,4.649325 -3.605032,8.806303 -6.3543477,12.656781 -0.5056324,0.574093 -0.6736016,1.336575 -0.5246557,2.080392 0.9318694,7.771908 2.5500454,15.548259 5.7243024,22.73727 1.64706,3.654239 3.754613,7.199009 6.822354,9.842589 2.63927,2.377501 6.210572,3.750402 9.775004,3.54942 8.50094,-8.03e-4 17.002608,0.03711 25.503066,-0.05442 2.448441,-0.05758 4.826037,-0.937875 6.940033,-2.131994 2.064939,-1.205847 3.823516,-2.919919 5.200664,-4.865377 1.341766,-2.09937 2.329004,-4.493054 2.562965,-6.986624 0.129067,-9.015219 0.05928,-18.032334 0.08236,-27.048339 1.91e-4,-9.270474 2.8e-5,-18.540948 8.2e-5,-27.811422 -0.668883,-2.213404 -2.246993,-4.22392 -4.468837,-5.016953 -1.871223,-0.711905 -4.026535,-0.497894 -5.754716,0.497665 -0.182011,0.07627 -0.609283,0.323018 -0.530274,-0.09344 -0.03172,-2.153497 0.208918,-4.369066 -0.379155,-6.4700101 -0.824527,-2.35488 -3.038947,-4.1762515 -5.497934,-4.559752 -1.315858,-0.1306865 -2.685281,-0.068 -3.876385,0.5668604 -0.447314,0.117883 -0.855669,0.6097985 -1.327387,0.5126954 C 49.623591,4.9955383 48.7721,3.6458556 47.501685,2.7725075 46.331421,1.9329968 44.902068,1.4078535 43.448117,1.4920967 Z m 0.143078,2.6936092 c 1.736524,-0.00559 3.335183,1.261763 3.918117,2.8583189 0.299006,2.1571583 0.146036,4.3505752 0.198716,6.5231512 0.03019,11.380182 -0.01621,22.761906 0.194407,34.140571 -0.0016,0.538552 -0.05232,1.262074 0.58764,1.463481 0.955632,0.435302 2.138642,-0.484075 1.909991,-1.51543 0.0362,-12.440499 0.0724,-24.880997 0.108599,-37.321496 1.007284,-1.9670879 3.611214,-2.9461076 5.623807,-1.957099 1.466655,0.6972686 2.490009,2.32763 2.333565,3.967101 0.135692,12.335906 -0.01557,24.674281 0.198912,37.009348 -0.06238,0.597061 0.172935,1.262381 0.823548,1.408975 0.883506,0.290285 1.843738,-0.531005 1.673822,-1.456428 0.12931,-9.559575 0.114653,-19.120476 0.165068,-28.680688 0.74955,-1.286228 2.115111,-2.45352 3.69362,-2.267682 0.908472,-0.08418 1.840911,0.08855 2.558537,0.682244 1.061725,0.787584 1.836324,2.05847 1.700468,3.416776 0.09584,10.616053 0.01345,21.233075 0.02287,31.849504 -0.03517,6.952959 0.05097,13.908062 -0.123228,20.859381 0.008,1.165989 -0.220394,2.310492 -0.681519,3.381232 -1.39887,3.921441 -4.816227,6.977833 -8.791572,8.138867 -0.792707,0.290962 -1.605205,0.478025 -2.453658,0.392765 -9.309455,-0.01238 -18.620115,0.06726 -27.928779,-0.04865 -3.073952,-0.397986 -5.635534,-2.422914 -7.591736,-4.713608 -3.258513,-3.990921 -5.161881,-8.88274 -6.645353,-13.764544 -1.40859,-4.812717 -2.363769,-9.756942 -2.947913,-14.734625 -0.0083,-1.123237 0.987419,-1.884185 1.487668,-2.807049 2.574,-3.84629 4.639093,-8.092876 5.596214,-12.642283 0.976482,-0.326026 2.073921,-0.453199 3.079068,-0.205078 1.487689,0.785034 2.061653,2.565712 2.236952,4.137502 0.117062,0.93116 0.224675,1.895469 0.135293,2.822036 -1.528038,3.19635 -2.924368,6.541927 -3.343301,10.087155 -0.103045,1.73221 -0.07217,3.754975 1.308173,5.019618 0.350536,0.44509 0.784619,0.750324 1.355213,0.825362 1.830699,0.592777 3.718097,0.982605 5.633754,1.159697 3.21038,0.501824 6.520323,1.704433 8.708845,4.208872 0.789677,0.84297 1.183754,2.019833 2.086891,2.7505 0.84909,0.308079 2.016146,-0.345713 1.829692,-1.341866 -0.327432,-1.410052 -1.344153,-2.547819 -2.274766,-3.609817 -2.820502,-2.925316 -6.863987,-4.303526 -10.80731,-4.833643 -0.379946,0.08024 -0.599124,-0.136419 -0.506981,-0.510746 -0.119403,-8.392468 -0.04827,-16.786824 -0.06681,-25.180059 0.02272,-6.419753 -0.02823,-12.841319 0.09005,-19.2598 0.339105,-2.002346 2.405715,-3.39704 4.387548,-3.177689 1.413795,0.05659 2.718201,1.009342 3.354663,2.241381 0.200785,2.036022 0.07274,4.095565 0.118442,6.140761 0.02954,8.644391 0.01506,17.289975 0.154891,25.933278 -0.09015,0.69803 0.317651,1.454885 1.072449,1.528114 0.750201,0.133696 1.602026,-0.474806 1.464871,-1.287917 0.134764,-7.09704 0.100004,-14.196822 0.147479,-21.295033 0.02158,-5.768055 0.02585,-11.536147 0.03049,-17.3042339 0.700933,-1.6872461 2.239235,-3.1383838 4.17259,-3.0305232 z M 25.720612,54.09157 c -0.03536,1.527686 0.0784,3.0782 -0.09504,4.591945 -0.559005,-0.138597 -1.409769,-0.239872 -1.45837,-0.977529 -0.498264,-2.197862 0.267419,-4.412454 0.878942,-6.505487 0.1886,-0.582468 0.410896,-1.153689 0.668342,-1.70922 0.002,1.53343 0.0041,3.066861 0.0061,4.600291 z"
     id="path3" /></svg>
