<?xml version="1.0" encoding="UTF-8" standalone="no"?>
<svg
   version="1.1"
   x="0px"
   y="0px"
   viewBox="0 0 84.863 112.5"
   enable-background="new 0 0 84.863 90"
   xml:space="preserve"
   id="svg2"
   sodipodi:docname="rock-green.svg"
   inkscape:version="1.3.2 (091e20e, 2023-11-25, custom)"
   xmlns:inkscape="http://www.inkscape.org/namespaces/inkscape"
   xmlns:sodipodi="http://sodipodi.sourceforge.net/DTD/sodipodi-0.dtd"
   xmlns="http://www.w3.org/2000/svg"
   xmlns:svg="http://www.w3.org/2000/svg"><defs
     id="defs2" /><sodipodi:namedview
     id="namedview2"
     pagecolor="#ffffff"
     bordercolor="#000000"
     borderopacity="0.25"
     inkscape:showpageshadow="2"
     inkscape:pageopacity="0.0"
     inkscape:pagecheckerboard="0"
     inkscape:deskcolor="#d1d1d1"
     inkscape:zoom="7.2977778"
     inkscape:cx="42.478685"
     inkscape:cy="56.25"
     inkscape:window-width="1920"
     inkscape:window-height="1017"
     inkscape:window-x="-8"
     inkscape:window-y="-8"
     inkscape:window-maximized="1"
     inkscape:current-layer="svg2" /><path
     d="M72.027,35.938c-0.002-3.866-3.133-6.998-6.996-6.998c-1.447,0.001-2.779,0.454-3.894,1.205  c-0.452-3.426-3.377-6.071-6.928-6.073c-1.529,0.001-2.938,0.496-4.09,1.328c-0.822-2.948-3.521-5.113-6.731-5.113  c-3.34,0.002-6.129,2.34-6.825,5.477c-0.06,0.359-0.03,0.281-0.044,0.442c-0.011,0.372-0.019,1.197-0.023,2.34  c-1.121-0.765-2.467-1.226-3.928-1.227c-3.342,0.004-6.129,2.343-6.824,5.476l-0.034,0.313v4.294  c-0.894-1.272-2.47-2.297-4.443-2.271c-1.185,0.003-2.474,0.322-3.907,0.974c-0.479,0.22-0.802,0.678-0.844,1.203  c0,0-0.002,0.052-0.026,0.226c-0.171,1.213-1.239,7.074-6.975,14.419c-0.226,0.288-0.333,0.648-0.303,1.012  c0.008,0.063,0.746,8.993,3.722,18.049c1.494,4.532,3.538,9.105,6.438,12.649c2.877,3.534,6.771,6.076,11.645,6.067  c0.094-0.002,0.144-0.002,0.16-0.002l0.377,0.004c0.941,0.174,1.912,0.269,2.906,0.267L56.105,90  c8.866-0.002,16.055-7.189,16.055-16.059L72.027,35.938z M61.207,34.502c0.584-1.551,2.068-2.664,3.824-2.664v0.002  c2.262,0.004,4.092,1.834,4.096,4.099v9.467c0,0.256-0.027,0.512-0.074,0.771v0.002c-0.361,1.887-2.024,3.323-4.021,3.32  c-1.158,0.001-2.199-0.482-2.943-1.256c-0.326-0.339-0.588-0.736-0.783-1.171c-0.034-0.078-0.067-0.156-0.098-0.237  c-0.021-0.057-0.053-0.111-0.07-0.17c0-0.001,0-0.001,0-0.002c-0.133-0.404-0.202-0.822-0.204-1.258l0.002-9.467  c-0.002-0.259,0.028-0.526,0.077-0.795c0.029-0.152,0.072-0.307,0.125-0.471C61.154,34.614,61.186,34.561,61.207,34.502z   M54.201,26.971h0.01c2.262,0.004,4.094,1.836,4.098,4.098v18.664c-0.004,1.414-0.719,2.658-1.809,3.396  c-0.652,0.44-1.441,0.699-2.289,0.701c-1.383,0.002-2.604-0.688-3.346-1.741c-0.211-0.302-0.381-0.636-0.506-0.99  c-0.015-0.037-0.033-0.072-0.047-0.111c-0.127-0.396-0.197-0.816-0.199-1.252l0.002-18.665c0-0.441,0.07-0.86,0.199-1.265  c0.016-0.043,0.037-0.084,0.053-0.127C50.936,28.107,52.434,26.971,54.201,26.971z M39.41,26.677  c0.004-0.167,0.006-0.298,0.008-0.382V26.29c0.445-1.782,2.056-3.108,3.972-3.106c2.261,0.003,4.091,1.832,4.097,4.091  c0,0.063-0.047,23.252-0.035,23.61c0.004,0.178,0.01,0.324,0.018,0.448c0.008,0.053,0.01,0.085,0.012,0.118  c-0.002,0.025-0.008,0.05-0.01,0.076c-0.008,0.168-0.029,0.332-0.057,0.496c-0.012,0.076-0.016,0.156-0.033,0.231  c-0.041,0.187-0.104,0.362-0.172,0.538c-0.027,0.071-0.045,0.146-0.074,0.217c-0.074,0.166-0.168,0.318-0.264,0.473  c-0.041,0.068-0.074,0.144-0.119,0.209c-0.098,0.141-0.213,0.266-0.326,0.392c-0.061,0.065-0.111,0.14-0.176,0.202  c-0.115,0.111-0.246,0.206-0.373,0.305c-0.078,0.061-0.148,0.129-0.229,0.184c-0.131,0.086-0.273,0.151-0.414,0.223  c-0.095,0.048-0.181,0.104-0.275,0.146c-0.15,0.063-0.314,0.101-0.474,0.146c-0.096,0.026-0.187,0.065-0.284,0.086  c-0.244,0.049-0.498,0.072-0.756,0.076c-0.019,0-0.035,0.005-0.055,0.005c-0.152-0.001-0.298-0.029-0.445-0.047  c-2.015-0.227-3.5-1.896-3.516-4.049C39.428,51.333,39.406,27.013,39.41,26.677z M28.609,33.283c0.459-1.76,2.057-3.069,3.961-3.065  c1.747-0.002,3.234,1.095,3.826,2.634v15.606c-0.031,0.082-0.064,0.163-0.101,0.243c-0.039,0.087-0.077,0.174-0.122,0.258  c-0.052,0.1-0.113,0.191-0.173,0.284c-0.054,0.082-0.104,0.166-0.164,0.243c-0.064,0.087-0.137,0.166-0.208,0.246  c-0.066,0.074-0.129,0.151-0.2,0.222c-0.077,0.075-0.161,0.142-0.243,0.212c-0.076,0.063-0.149,0.13-0.23,0.188  c-0.089,0.063-0.185,0.117-0.279,0.174c-0.083,0.052-0.164,0.105-0.251,0.15c-0.102,0.053-0.211,0.094-0.319,0.137  c-0.086,0.035-0.17,0.076-0.26,0.104c-0.124,0.042-0.254,0.067-0.383,0.097c-0.079,0.018-0.156,0.043-0.237,0.057  c-0.202,0.033-0.41,0.048-0.621,0.05c-0.011,0-0.022,0.003-0.033,0.003c-0.242,0-0.479-0.021-0.708-0.063  c-0.07-0.012-0.135-0.037-0.204-0.053c-0.157-0.035-0.313-0.07-0.463-0.124c-0.086-0.03-0.167-0.075-0.251-0.11  c-0.123-0.056-0.249-0.104-0.365-0.17c-0.09-0.051-0.17-0.113-0.256-0.17c-0.101-0.066-0.206-0.129-0.3-0.205  c-0.084-0.067-0.159-0.146-0.238-0.222c-0.083-0.077-0.17-0.153-0.248-0.237c-0.075-0.084-0.138-0.176-0.206-0.264  c-0.068-0.089-0.14-0.175-0.201-0.271c-0.061-0.097-0.11-0.197-0.163-0.298c-0.052-0.1-0.108-0.195-0.154-0.299  c-0.044-0.104-0.077-0.216-0.113-0.324c-0.032-0.096-0.066-0.19-0.091-0.289V33.283H28.609z M25.711,49.643v8.983l-1.169-0.346  c-0.122-0.121-0.457-0.546-0.478-1.954C24.058,55.016,24.43,52.875,25.711,49.643z M69.262,73.941  C69.25,81.209,63.369,87.088,56.105,87.1H34.463c-0.85,0-1.68-0.08-2.487-0.238l-0.257-0.024l-0.481-0.006  c-0.033-0.002-0.063-0.002-0.091-0.002c-0.055,0-0.099,0.002-0.125,0.002c-3.83-0.01-6.833-1.896-9.404-5.008  c-3.835-4.649-6.292-11.972-7.692-18.095c-0.706-3.061-1.163-5.826-1.442-7.814c-0.167-1.194-0.27-2.104-0.325-2.639  c5.288-6.935,6.744-12.68,7.125-14.832c0.818-0.303,1.479-0.416,1.988-0.416c1.077,0.028,1.58,0.394,2.128,1.113  c1.015,1.351,1.278,4.156,1.249,5.397c0,0.15-0.001,0.273-0.004,0.372c-2.645,5.472-3.471,8.994-3.479,11.415  c-0.072,3.229,1.771,4.528,2.214,4.625l3.373,1.006c0.214,0.063,3.17,0.134,5.469,0.854c2.622,0.819,5.387,2.379,6.746,5.338  c0.243,0.527,0.769,0.842,1.315,0.842c0.204,0,0.409-0.043,0.605-0.135c0.727-0.336,1.043-1.194,0.709-1.922  c-1.858-4.013-5.492-5.951-8.514-6.891c-1.787-0.555-3.402-0.785-4.472-0.881V52.79c0.096,0.065,0.202,0.115,0.301,0.177  c0.125,0.078,0.251,0.153,0.382,0.223c0.202,0.108,0.413,0.201,0.626,0.289c0.131,0.056,0.259,0.112,0.393,0.158  c0.245,0.083,0.499,0.146,0.755,0.201c0.113,0.025,0.223,0.061,0.339,0.08c0.379,0.063,0.766,0.102,1.163,0.104l0,0  c0.026,0,0.053-0.006,0.08-0.006c0.352-0.005,0.699-0.031,1.037-0.086c0.114-0.019,0.222-0.055,0.334-0.078  c0.245-0.053,0.49-0.104,0.725-0.181c0.129-0.042,0.249-0.103,0.375-0.151c0.208-0.08,0.416-0.16,0.613-0.261  c0.129-0.065,0.249-0.146,0.374-0.22c0.146-0.087,0.298-0.161,0.437-0.257c0.563,2.709,2.695,4.84,5.403,5.411  c0.018,0.004,0.036,0.008,0.054,0.011c0.199,0.042,0.402,0.071,0.608,0.096c0.027,0.003,0.056,0.009,0.084,0.013  c0.229,0.021,0.462,0.037,0.698,0.037c0.02,0,0.037-0.005,0.057-0.005c0.269-0.003,0.531-0.021,0.792-0.054  c0.091-0.011,0.179-0.025,0.269-0.041c0.2-0.032,0.398-0.073,0.592-0.122c0.082-0.021,0.164-0.038,0.244-0.063  c0.262-0.074,0.519-0.162,0.767-0.268c0.032-0.013,0.061-0.029,0.092-0.043c0.223-0.098,0.436-0.207,0.645-0.326  c0.068-0.039,0.138-0.08,0.203-0.121c0.183-0.111,0.355-0.23,0.525-0.357c0.051-0.038,0.102-0.074,0.151-0.112  c0.216-0.171,0.42-0.353,0.613-0.546c0.023-0.021,0.041-0.045,0.063-0.066c0.17-0.175,0.33-0.359,0.481-0.553  c0.041-0.052,0.08-0.104,0.119-0.158c0.141-0.188,0.271-0.385,0.393-0.588c0.017-0.025,0.035-0.049,0.052-0.076  c0.18,0.168,0.369,0.322,0.563,0.472c0.041,0.028,0.082,0.056,0.123,0.085c0.254,0.184,0.521,0.353,0.797,0.499  c0.021,0.011,0.037,0.022,0.056,0.032c0.289,0.15,0.592,0.274,0.899,0.385c0.058,0.021,0.113,0.041,0.172,0.06  c0.304,0.099,0.617,0.179,0.938,0.234c0.062,0.01,0.123,0.017,0.185,0.026c0.327,0.049,0.661,0.08,1.004,0.082  c0.008,0,0.018,0.002,0.026,0.002c0.051,0,0.099-0.007,0.146-0.008c0.174-0.004,0.348-0.011,0.518-0.025  c0.092-0.01,0.183-0.024,0.272-0.037c0.128-0.018,0.257-0.033,0.382-0.059c0.096-0.019,0.19-0.041,0.287-0.063  c0.114-0.027,0.231-0.056,0.348-0.089c0.096-0.028,0.188-0.06,0.281-0.09c0.112-0.037,0.223-0.078,0.334-0.121  c0.09-0.036,0.178-0.073,0.266-0.111c0.111-0.05,0.22-0.104,0.326-0.157c0.082-0.041,0.166-0.083,0.246-0.128  c0.112-0.063,0.223-0.132,0.332-0.201c0.067-0.044,0.141-0.085,0.207-0.131c0.157-0.107,0.313-0.224,0.461-0.345  c0.047-0.038,0.092-0.079,0.139-0.118c0.123-0.107,0.246-0.217,0.363-0.332c0.059-0.057,0.113-0.12,0.17-0.181  c0.088-0.093,0.176-0.186,0.258-0.282c0.06-0.069,0.115-0.143,0.172-0.214c0.072-0.095,0.146-0.189,0.216-0.287  c0.053-0.077,0.104-0.156,0.155-0.235c0.064-0.101,0.127-0.199,0.187-0.303c0.047-0.082,0.094-0.165,0.137-0.249  c0.057-0.106,0.107-0.216,0.158-0.327c0.039-0.083,0.078-0.167,0.113-0.253c0.049-0.122,0.094-0.247,0.137-0.372  c0.024-0.078,0.057-0.154,0.08-0.234c0.063-0.2,0.115-0.404,0.158-0.612c0.141,0.097,0.295,0.172,0.44,0.259  c0.123,0.072,0.242,0.151,0.369,0.217c0.194,0.1,0.401,0.178,0.608,0.26c0.127,0.05,0.248,0.108,0.38,0.152  c0.229,0.075,0.473,0.125,0.715,0.178c0.114,0.023,0.227,0.063,0.344,0.08c0.363,0.059,0.734,0.092,1.115,0.092  c0.377,0,0.744-0.035,1.104-0.094c0.031-0.003,0.062-0.006,0.091-0.011c0.344-0.06,0.676-0.147,0.998-0.254  c0.043-0.015,0.086-0.024,0.127-0.041c0.313-0.108,0.612-0.243,0.903-0.394c0.045-0.024,0.09-0.047,0.133-0.07  c0.285-0.156,0.558-0.332,0.816-0.524c0.018-0.014,0.041-0.024,0.059-0.039v22.97H69.262z"
     id="path1" /><path
     style="fill:#00ff00;stroke-width:0.137028"
     d="m 43.131441,20.390679 c -3.499394,0.0798 -6.75792,3.227391 -6.544961,6.805903 -0.136714,0.312602 0.276468,1.548037 -0.280549,1.28148 -2.036421,-1.143065 -4.604682,-1.519723 -6.725276,-0.364035 -1.842033,0.901197 -3.248179,2.682618 -3.755815,4.635624 -0.02851,1.580833 -0.05701,3.161666 -0.08552,4.742499 -1.386218,-1.749308 -3.756964,-2.76256 -5.954295,-2.102256 -1.02399,0.298474 -2.292616,0.468198 -2.971795,1.358504 -0.641762,2.66422 -1.293255,5.355993 -2.573896,7.80377 -1.375688,2.80423 -3.127835,5.402105 -4.9530097,7.929562 0.4612548,6.232865 1.8580517,12.374105 3.6941807,18.337031 2.025999,6.120308 4.887039,12.42339 10.253057,16.316393 2.371785,1.783729 5.34364,2.451369 8.257561,2.589472 4.184565,0.288107 8.390341,0.122852 12.583456,0.177188 4.876158,-0.0604 9.761526,0.09714 14.631488,-0.169339 5.752761,-0.996282 10.851791,-5.271452 12.57687,-10.889714 1.161919,-3.342576 0.665645,-6.93107 0.785777,-10.397 -0.06319,-11.02453 -0.0066,-22.051556 -0.234453,-33.074066 -0.0625,-4.182958 -4.815975,-7.430456 -8.750792,-6.020669 -0.693867,0.111731 -1.367808,0.741763 -2.025981,0.727694 -0.483355,-3.296389 -3.543957,-6.014799 -6.908673,-5.896487 -1.448952,-0.0286 -2.786893,0.591304 -4.053032,1.209433 -0.856536,-2.232105 -2.600304,-4.237757 -5.005002,-4.790896 -0.638634,-0.16359 -1.300551,-0.234429 -1.95934,-0.210091 z m 0.424466,2.764379 c 1.88436,-0.01019 3.720374,1.573719 3.9243,3.428377 0,8.632765 0,17.26553 0,25.898295 -0.717228,2.092561 -3.069607,3.529878 -5.241519,2.840248 -1.797616,-0.457679 -2.944477,-2.284857 -2.812156,-4.099489 -0.20233,-8.254364 -0.05072,-16.514193 -0.09684,-24.770729 0.327444,-1.897472 2.26719,-3.463648 4.226219,-3.296702 z m 10.988201,3.843475 c 1.844766,-0.06982 3.42228,1.5848 3.761312,3.284658 0,6.851401 0,13.702802 0,20.554202 -0.677629,1.99097 -2.799951,3.470323 -4.923105,2.943427 -1.948114,-0.36027 -3.464597,-2.243387 -3.250912,-4.241656 -0.09481,-6.509325 -0.02665,-13.020118 -0.04766,-19.530029 0.632742,-1.676851 2.185189,-3.246555 4.110841,-3.013546 0.116509,9.82e-4 0.233019,0.002 0.349528,0.0029 z m -21.955527,3.196072 c 1.782701,-0.0053 3.853899,1.288066 3.800607,3.240181 0.13441,5.080476 0.02474,10.165419 0.06026,15.247628 -0.919684,1.798404 -3.071668,3.030083 -5.07084,2.318503 -1.778525,-0.545214 -3.180386,-2.387157 -2.874354,-4.274364 -8.1e-4,-4.526831 -0.0016,-9.053662 -0.0024,-13.580493 0.648211,-1.695307 2.193266,-3.05783 4.086754,-2.951455 z m 32.541477,1.597768 c 2.152194,0.04721 4.167286,1.958412 4.012619,4.169987 0.05409,3.49367 0.08706,6.998834 -0.10973,10.487194 -0.424303,2.048226 -2.599384,3.335012 -4.61961,3.046195 -2.074115,-0.212137 -3.665465,-2.256554 -3.471436,-4.317893 -0.01426,-3.439482 -0.134799,-6.891233 0.07946,-10.324031 0.481944,-1.781238 2.233811,-3.166789 4.1087,-3.061452 z m -43.756364,6.25003 c 1.769805,-0.135206 2.624827,1.786864 2.974185,3.220766 0.376527,1.727529 0.614424,3.668402 -0.355933,5.251687 -1.592655,3.741176 -3.326323,7.822752 -2.45339,11.967202 0.390588,1.485253 1.691188,2.546982 3.184164,2.791419 3.031666,1.027529 6.39616,0.679914 9.300106,2.153098 2.172775,0.966967 4.029334,2.641419 5.095193,4.778049 0.608087,1.190932 2.705304,0.618561 2.491127,-0.757936 -0.501858,-1.983548 -2.149919,-3.448932 -3.614917,-4.776443 -2.688369,-2.114949 -6.125628,-3.117599 -9.492402,-3.437477 0.03548,-2.171205 -0.08444,-4.364389 0.102771,-6.521944 2.158027,1.398546 5.045478,1.647591 7.303566,0.334096 0.811277,-0.798822 0.822927,0.322667 1.099303,0.912001 1.3221,3.209272 5.256316,5.225328 8.579587,3.915983 1.662942,-0.456861 2.912544,-1.836211 3.889427,-3.098899 2.084319,1.914671 5.348241,2.48437 7.859306,1.076151 1.855891,-0.949272 3.220253,-2.748335 3.676472,-4.778584 2.080882,1.340726 4.829701,1.639944 7.070324,0.516264 0.338378,1.6e-5 1.220278,-1.082418 1.208362,-0.425268 0.02949,8.148264 0.06296,16.299478 -0.101432,24.446118 -0.267858,2.875413 -1.725884,5.595598 -3.717154,7.657511 -2.617651,2.665155 -6.377836,4.054141 -10.096448,3.875323 -7.564195,0.06105 -15.132712,0.12436 -22.69473,-0.07681 -2.555664,-0.224865 -5.271132,-0.341767 -7.449025,-1.876107 -4.064488,-2.614936 -6.37394,-7.057799 -8.227602,-11.369583 -2.301002,-5.587553 -3.6083,-11.540669 -4.530455,-17.496761 -0.03929,-1.032685 -0.467505,-2.09789 -0.270577,-3.112836 1.579951,-2.42315 3.267318,-4.80148 4.47361,-7.448248 1.154175,-2.288216 1.88829,-4.750553 2.593235,-7.200369 0.429736,-0.606722 1.456833,-0.475653 2.103327,-0.518404 z m 4.334848,11.499112 c 0.0595,3.05013 0.118704,6.118278 -0.05005,9.160537 -0.947992,-0.04482 -1.743926,-0.805737 -1.601782,-1.792069 -0.109158,-2.541335 0.678761,-5.08083 1.651828,-7.368468 z"
     id="path2" /></svg>
